{
    "asset" : {
        "generator" : "Khronos glTF Blender I/O v3.3.32",
        "version" : "2.0"
    },
    "extensionsUsed" : [
        "KHR_materials_specular",
        "KHR_materials_ior"
    ],
    "scene" : 0,
    "scenes" : [
        {
            "name" : "Scene",
            "nodes" : [
                0,
                1
            ]
        }
    ],
    "nodes" : [
        {
            "mesh" : 0,
            "name" : "Tree",
            "translation" : [
                -0.33977141976356506,
                4.20914363861084,
                0
            ]
        },
        {
            "mesh" : 1,
            "name" : "Leaves",
            "rotation" : [
                -0.3063116669654846,
                -0.8406118154525757,
                -0.2653784453868866,
                0.3593316972255707
            ],
            "scale" : [
                1.7985763549804688,
                1.7985763549804688,
                1.7985758781433105
            ],
            "translation" : [
                -0.850106418132782,
                6.132740497589111,
                2.1322712898254395
            ]
        }
    ],
    "materials" : [
        {
            "doubleSided" : true,
            "extensions" : {
                "KHR_materials_specular" : {
                    "specularColorFactor" : [
                        0,
                        0,
                        0
                    ]
                },
                "KHR_materials_ior" : {
                    "ior" : 1.4500000476837158
                }
            },
            "name" : "Bark_a",
            "pbrMetallicRoughness" : {
                "baseColorTexture" : {
                    "index" : 0
                },
                "metallicFactor" : 0
            }
        },
        {
            "alphaCutoff" : 0.5,
            "alphaMode" : "MASK",
            "doubleSided" : true,
            "extensions" : {
                "KHR_materials_specular" : {
                    "specularColorFactor" : [
                        0,
                        0,
                        0
                    ]
                },
                "KHR_materials_ior" : {
                    "ior" : 1.4500000476837158
                }
            },
            "name" : "Leaf",
            "pbrMetallicRoughness" : {
                "baseColorTexture" : {
                    "index" : 1
                },
                "metallicFactor" : 0
            }
        }
    ],
    "meshes" : [
        {
            "name" : "Cylinder.001",
            "primitives" : [
                {
                    "attributes" : {
                        "POSITION" : 0,
                        "NORMAL" : 1,
                        "TEXCOORD_0" : 2
                    },
                    "indices" : 3,
                    "material" : 0
                }
            ]
        },
        {
            "name" : "Plane.010",
            "primitives" : [
                {
                    "attributes" : {
                        "POSITION" : 4,
                        "NORMAL" : 5,
                        "TEXCOORD_0" : 6
                    },
                    "indices" : 7,
                    "material" : 1
                }
            ]
        }
    ],
    "textures" : [
        {
            "sampler" : 0,
            "source" : 0
        },
        {
            "sampler" : 0,
            "source" : 1
        }
    ],
    "images" : [
        {
            "mimeType" : "image/png",
            "name" : "bark_process",
            "uri" : "bark_process.png"
        },
        {
            "mimeType" : "image/png",
            "name" : "leaf_proces.png",
            "uri" : "leaf_proces_png.png"
        }
    ],
    "accessors" : [
        {
            "bufferView" : 0,
            "componentType" : 5126,
            "count" : 1687,
            "max" : [
                1.8416674137115479,
                5.616790771484375,
                3.282461643218994
            ],
            "min" : [
                -3.082947254180908,
                -4.181149005889893,
                -3.2078518867492676
            ],
            "type" : "VEC3"
        },
        {
            "bufferView" : 1,
            "componentType" : 5126,
            "count" : 1687,
            "type" : "VEC3"
        },
        {
            "bufferView" : 2,
            "componentType" : 5126,
            "count" : 1687,
            "type" : "VEC2"
        },
        {
            "bufferView" : 3,
            "componentType" : 5123,
            "count" : 4380,
            "type" : "SCALAR"
        },
        {
            "bufferView" : 4,
            "componentType" : 5126,
            "count" : 388,
            "max" : [
                1.5956989526748657,
                2.4768056869506836,
                3.178084373474121
            ],
            "min" : [
                -3.890507698059082,
                -1.8923015594482422,
                -1.1855700016021729
            ],
            "type" : "VEC3"
        },
        {
            "bufferView" : 5,
            "componentType" : 5126,
            "count" : 388,
            "type" : "VEC3"
        },
        {
            "bufferView" : 6,
            "componentType" : 5126,
            "count" : 388,
            "type" : "VEC2"
        },
        {
            "bufferView" : 7,
            "componentType" : 5123,
            "count" : 582,
            "type" : "SCALAR"
        }
    ],
    "bufferViews" : [
        {
            "buffer" : 0,
            "byteLength" : 20244,
            "byteOffset" : 0,
            "target" : 34962
        },
        {
            "buffer" : 0,
            "byteLength" : 20244,
            "byteOffset" : 20244,
            "target" : 34962
        },
        {
            "buffer" : 0,
            "byteLength" : 13496,
            "byteOffset" : 40488,
            "target" : 34962
        },
        {
            "buffer" : 0,
            "byteLength" : 8760,
            "byteOffset" : 53984,
            "target" : 34963
        },
        {
            "buffer" : 0,
            "byteLength" : 4656,
            "byteOffset" : 62744,
            "target" : 34962
        },
        {
            "buffer" : 0,
            "byteLength" : 4656,
            "byteOffset" : 67400,
            "target" : 34962
        },
        {
            "buffer" : 0,
            "byteLength" : 3104,
            "byteOffset" : 72056,
            "target" : 34962
        },
        {
            "buffer" : 0,
            "byteLength" : 1164,
            "byteOffset" : 75160,
            "target" : 34963
        }
    ],
    "samplers" : [
        {
            "magFilter" : 9728,
            "minFilter" : 9984
        }
    ],
    "buffers" : [
        {
            "byteLength" : 76324,
            "uri" : "treeA.bin"
        }
    ]
}
